# xmcd
#
# Track frame offsets: 
#        150
#        23581
#        42118
#        65591
#        94206
#        117515
#        143504
#        166024
#        193782
#        210351
#
# Disc length: 3154 seconds
#
# Revision: 0
# Processed by: cddbd v1.5.2PL0 Copyright (c) Steve Scherf et al.
# Submitted via: ExactAudioCopy v1.0b3
#
DISCID=7f0c500a
DTITLE=Various Artist - Net Ca Tru Ngay Xuan
DYEAR=2001
DGENRE=
TTITLE0=Tam ca MTM - Net ca tru ngay Xuan
TTITLE1=Hong Nhung - Mot dem mua thang gieng
TTITLE2=Phuong Thanh - Xuan tinh yeu
TTITLE3=hop ca - Lang nghe mua Xuan ve
TTITLE4=Bang Kieu - Dem Xuan
TTITLE5=Tran Thu Ha - Gui nguoi em gai
TTITLE6=nhom Con Gai - Bom
TTITLE7=My Linh - Hoi tho mua Xuan
TTITLE8=Xuan Phu - Tinh Xuan
TTITLE9=Thanh Lam - Do tinh
EXTD=
EXTT0=
EXTT1=
EXTT2=
EXTT3=
EXTT4=
EXTT5=
EXTT6=
EXTT7=
EXTT8=
EXTT9=
PLAYORDER=
